<svg id="图层_1" data-name="图层 1" 
    xmlns="http://www.w3.org/2000/svg" 
    xmlns:xlink="http://www.w3.org/1999/xlink" 
    width="100%" height="100%" viewBox="0 0 1024 1024">
    <defs>
        <style>.cls-1{fill:none;}.cls-2{fill:#409EFF;}.cls-3{clip-path:url(#clip-path);}.cls-4{clip-path:url(#clip-path-2);}.cls-5{clip-path:url(#clip-path-3);}</style>
        <clipPath id="clip-path">
            <rect class="cls-1" x="367.13" y="317.42" width="297.8" height="298.19"/>
        </clipPath>
        <clipPath id="clip-path-2">
            <rect class="cls-1" x="429.39" y="385.21" width="173.28" height="162.62"/>
        </clipPath>
        <clipPath id="clip-path-3">
            <rect class="cls-1" x="435.85" y="391.27" width="160.37" height="150.5"/>
        </clipPath>
    </defs>

    <title>未标题-1</title>
    <path class="cls-2" d="M546.91,243.72l-28.5-19h0a4.29,4.29,0,0,0-.75-.4c-.09,0-.19-.06-.29-.09a4.18,4.18,0,0,0-.5-.15c-.13,0-.25,0-.38,0a4.27,4.27,0,0,0-.45,0l-.32,0a4.29,4.29,0,0,0-.51.05c-.11,0-.22.07-.33.1a4.14,4.14,0,0,0-.46.14,4.32,4.32,0,0,0-.75.4h0l-28.5,19a4.28,4.28,0,1,0,4.74,7.11L516,233.41l26.13,17.42a4.28,4.28,0,0,0,4.74-7.11Z"/>
    <path class="cls-2" d="M301.47,509.27a4.75,4.75,0,1,0,9.13-1.73l0-.08s0-.06,0-.09a4.75,4.75,0,1,0-9.1,1.9Z"/>
    <path class="cls-2" d="M556.7,670.58a4.74,4.74,0,1,0,6,2.62A4.74,4.74,0,0,0,556.7,670.58Z"/>
    <path class="cls-2" d="M335.56,352.84a4.75,4.75,0,0,0,6.2-2.57l0-.09.07-.06a4.77,4.77,0,1,0-6.3,2.72Z"/>
    <path class="cls-2" d="M695.19,579.66a4.71,4.71,0,1,0,2.58,6.21A4.74,4.74,0,0,0,695.19,579.66Z"/>
    <path class="cls-2" d="M722.78,512.93a5.55,5.55,0,1,0-2.67-5.89A4.75,4.75,0,0,0,722.78,512.93Z"/>
    <path class="cls-2" d="M630.07,290.34a4.74,4.74,0,1,0-.35-4.29A4.71,4.71,0,0,0,630.07,290.34Z"/>
    <path class="cls-2" d="M402.9,645.67a7.52,7.52,0,1,0-5.13,2.87A4.75,4.75,0,0,0,402.9,645.67Z"/>
    <path class="cls-2" d="M382,637.51l-30.79-6.16L345,600.56a4.28,4.28,0,0,0-8.38,1.68l6.72,33.59h0a4.28,4.28,0,0,0,.25.82c0,.09.1.18.14.27a4.17,4.17,0,0,0,.25.46c.07.11.16.2.24.29a4.08,4.08,0,0,0,.29.35c.08.07.16.13.25.2a4.14,4.14,0,0,0,.39.32c.09.06.2.11.3.16a4.14,4.14,0,0,0,.43.23,4.36,4.36,0,0,0,.81.25h0l33.59,6.72a4.28,4.28,0,1,0,1.68-8.38Z"/>
    <path class="cls-2" d="M341.86,589.64a4.74,4.74,0,1,0-6.72,0A4.75,4.75,0,0,0,341.86,589.64Z"/>
    <path class="cls-2" d="M650.07,295.53l30.79,6.16L687,332.48a4.28,4.28,0,0,0,8.38-1.68l-6.72-33.59h0a4.33,4.33,0,0,0-.25-.81,4.21,4.21,0,0,0-.23-.43c-.06-.1-.1-.21-.16-.3a4.14,4.14,0,0,0-.32-.39c-.07-.08-.13-.17-.2-.25a4.45,4.45,0,0,0-.35-.29c-.1-.08-.19-.17-.29-.24a4.17,4.17,0,0,0-.46-.25c-.09,0-.17-.1-.27-.14a4.32,4.32,0,0,0-.82-.25h0l-33.59-6.72a4.27,4.27,0,1,0-1.68,8.38Z"/>
    <path class="cls-2" d="M689.2,344.41a4.69,4.69,0,1,0,6.72,0A4.73,4.73,0,0,0,689.2,344.41Z"/>
    <path class="cls-2" d="M340,335.83a4.27,4.27,0,0,0,5-3.35l6.16-30.79L382,295.53a4.27,4.27,0,1,0-1.68-8.38l-33.59,6.72h0a4.26,4.26,0,0,0-.82.25c-.09,0-.18.1-.27.14a4.17,4.17,0,0,0-.46.25c-.11.07-.2.16-.29.24a4.22,4.22,0,0,0-.35.29c-.08.08-.13.16-.2.25a4.18,4.18,0,0,0-.32.39c-.06.09-.11.2-.16.3a4.2,4.2,0,0,0-.23.43,4.36,4.36,0,0,0-.25.81h0l-6.72,33.59A4.28,4.28,0,0,0,340,335.83Z"/>
    <path class="cls-2" d="M399.6,292.38a4.75,4.75,0,1,0-6.68,0A4.75,4.75,0,0,0,399.6,292.38Z"/>
    <path class="cls-2" d="M692.06,597.2a4.27,4.27,0,0,0-5,3.35l-6.16,30.79-30.79,6.16a4.28,4.28,0,0,0,1.68,8.38l33.59-6.72h0a4.33,4.33,0,0,0,.81-.25,4.13,4.13,0,0,0,.42-.23c.1-.06.21-.1.3-.16a4.24,4.24,0,0,0,.39-.32c.08-.07.17-.13.25-.2a4.38,4.38,0,0,0,.29-.35c.08-.1.17-.19.24-.29a4.13,4.13,0,0,0,.25-.46c0-.09.1-.17.14-.27a4.21,4.21,0,0,0,.25-.81h0l6.72-33.59A4.27,4.27,0,0,0,692.06,597.2Z"/>
    <path class="cls-2" d="M631.68,639.48a4.74,4.74,0,1,0,6.46.21A4.73,4.73,0,0,0,631.68,639.48Z"/>
    <path class="cls-2" d="M299.17,498.58a4.27,4.27,0,0,0,1.19-5.93l-17.42-26.13,17.42-26.13a4.28,4.28,0,0,0-7.11-4.74l-19,28.5h0a4.28,4.28,0,0,0-.4.75c0,.09-.06.19-.09.29a4.26,4.26,0,0,0-.15.5c0,.13,0,.25,0,.38a4.27,4.27,0,0,0,0,.45c0,.11,0,.21,0,.32a4.3,4.3,0,0,0,.05.51c0,.11.07.22.1.33a4.14,4.14,0,0,0,.14.46,4.34,4.34,0,0,0,.4.75h0l19,28.5A4.27,4.27,0,0,0,299.17,498.58Z"/>
    <path class="cls-2" d="M305.82,430.42a4.74,4.74,0,1,0-4.75-4.75A4.75,4.75,0,0,0,305.82,430.42Z"/>
    <path class="cls-2" d="M758.51,466.07c0-.13,0-.25,0-.38a4.25,4.25,0,0,0-.15-.5c0-.1,0-.19-.09-.29a4.28,4.28,0,0,0-.4-.75h0l-19-28.5a4.28,4.28,0,1,0-7.11,4.74l17.42,26.13-17.42,26.13a4.28,4.28,0,0,0,7.11,4.74l19-28.5h0a4.34,4.34,0,0,0,.4-.75,4.14,4.14,0,0,0,.14-.46c0-.11.08-.22.1-.33a4.23,4.23,0,0,0,.05-.51c0-.11,0-.21,0-.32A4.27,4.27,0,0,0,758.51,466.07Z"/>
    <path class="cls-2" d="M729.27,424a4.71,4.71,0,1,0,.31,1.64A4.71,4.71,0,0,0,729.27,424Z"/>
    <path class="cls-2" d="M475.19,251.55a84,84,0,0,1-3.81.76,4.75,4.75,0,0,0,3.64,8.78l.08,0h.09a4.75,4.75,0,1,0,0-9.5Z"/>
    <path class="cls-2" d="M556.84,261a4.75,4.75,0,1,0-4.7-4.74A4.75,4.75,0,0,0,556.84,261Z"/>
    <path class="cls-2" d="M544.53,681.49a4.26,4.26,0,0,0-2.37.72L516,699.62,489.91,682.2a4.28,4.28,0,0,0-4.74,7.11l28.5,19h0a4.36,4.36,0,0,0,.75.4,4.16,4.16,0,0,0,.46.14c.11,0,.22.08.33.1a4.31,4.31,0,0,0,.51.05l.32,0a4.27,4.27,0,0,0,.45,0c.13,0,.25,0,.38,0a4.17,4.17,0,0,0,.5-.15c.1,0,.19,0,.29-.09a4.28,4.28,0,0,0,.75-.4h0l28.5-19a4.28,4.28,0,0,0-2.38-7.83Z"/>
    <path class="cls-2" d="M475.51,670.59a4.74,4.74,0,1,0,4.42,4.72A4.74,4.74,0,0,0,475.51,670.59Z"/>
    <g class="cls-3">
        <path class="cls-2" d="M593.09,358.38l-26.73-40.89-6.48,12.85a143.14,143.14,0,0,0-127,19.71l11.87,16.59A122.82,122.82,0,0,1,550.5,348.81l-6.19,12.28ZM599,582.66l-11.87-16.59A122.83,122.83,0,0,1,481.41,583.9l6.22-12.28-48.77,2.74,26.7,40.86L472,602.37a143.13,143.13,0,0,0,127-19.71Zm53-72.41a143.06,143.06,0,0,0-19.71-127l-16.59,11.87A122.83,122.83,0,0,1,633.5,500.9l-12.28-6.19L624,543.49l40.86-26.73ZM393.47,466.36a122.09,122.09,0,0,1,4.94-34.55L410.69,438l-2.74-48.77L367.09,416l12.85,6.47a143.14,143.14,0,0,0,19.71,127l16.59-11.87a121.77,121.77,0,0,1-22.78-71.2ZM590,447.15"/>
    </g>
    <path class="cls-2" d="M551.84,510.62a74,74,0,0,0-.1-16.57,8.19,8.19,0,0,0,5.13-5.83,37.28,37.28,0,0,0,12.33-1.54c-3.55,9.8-9.4,17.15-16.87,23.54Zm-47.18,11.49c11.2-13.26,25.67-23.6,35.18-29.48a12.06,12.06,0,0,0,5.07,2.58c.66,6.5.19,13.12-.52,20.51A54.42,54.42,0,0,1,516,523.34a44.11,44.11,0,0,1-10.92-1.08m-35.65-23.11A83.91,83.91,0,0,1,480,469.38a16.65,16.65,0,0,0,3,.4,8.08,8.08,0,0,0,4.77-1.19c11.7,8.65,27.26,15.58,47.47,18.06a105.58,105.58,0,0,0-38.79,33.1,53.66,53.66,0,0,1-26.39-20m-5.85-56.47a32.58,32.58,0,0,0,8.38,11.09,13.77,13.77,0,0,0-.8,4.35c0,2.46.61,5.1,2.29,6.81a63.37,63.37,0,0,0-9.85,24.33,54.3,54.3,0,0,1-5-23.42A56.25,56.25,0,0,1,464,443.58s-.21.31.12-.28Zm27.65-28.17a102.65,102.65,0,0,1,14.39,9.45,10.43,10.43,0,0,0-.93,4.3,10,10,0,0,0,.33,2.5,102.61,102.61,0,0,0-19,16.94,14.14,14.14,0,0,0-4.05-.79A11.22,11.22,0,0,0,477,449c-3.6-3.49-7.18-9.31-8.94-12.87a55.51,55.51,0,0,1,23.72-21M540,415a132.89,132.89,0,0,0-16.7,6.29,10.6,10.6,0,0,0-7.42-3,8.89,8.89,0,0,0-4.4,1,112.24,112.24,0,0,0-10.57-7.55A52.62,52.62,0,0,1,516,409.65,56.42,56.42,0,0,1,540,415M492.67,452.7a94.57,94.57,0,0,1,17.2-15.13,9.33,9.33,0,0,0,6,1.92,9.1,9.1,0,0,0,4.45-1c8.1,9.29,16.33,21.1,20.87,36.52a7.59,7.59,0,0,0-4.24,4.59,91.34,91.34,0,0,1-44-16.92,7.55,7.55,0,0,0,.87-3.91,10.3,10.3,0,0,0-1.48-5.5m80.52,13.24c0,4.12-.09,8.05-1.21,11.72A49.33,49.33,0,0,1,557,480.82c-1.14-3.88-4.73-7.06-8.47-7.13-3.28-16.77-13.33-31.18-22.79-40.8a9.34,9.34,0,0,0,.8-4,9.15,9.15,0,0,0-.12-1.21,126.77,126.77,0,0,1,22.15-7.77,56.79,56.79,0,0,1,24.37,46.58M516,400.5a66,66,0,1,0,66.23,66,66.2,66.2,0,0,0-66.23-66"/>
    <g class="cls-4">
        <path class="cls-2" d="M601,450.4a5.86,5.86,0,0,0-4.48-4.59A30,30,0,0,1,577,431.59a29.47,29.47,0,0,1-2.72-23.78,5.75,5.75,0,0,0-1.78-6.13,86.57,86.57,0,0,0-28.14-16.07,5.94,5.94,0,0,0-6.26,1.54,30.44,30.44,0,0,1-44.32,0,6.05,6.05,0,0,0-6.27-1.53,86.52,86.52,0,0,0-28.13,16.09,5.8,5.8,0,0,0-1.77,6.09,29.42,29.42,0,0,1-2.7,23.79,30,30,0,0,1-19.5,14.21,5.9,5.9,0,0,0-4.48,4.6,83.06,83.06,0,0,0,0,32.09,5.86,5.86,0,0,0,4.48,4.59,30,30,0,0,1,19.5,14.21,29.43,29.43,0,0,1,2.7,23.79,5.85,5.85,0,0,0,1.78,6.11,86.67,86.67,0,0,0,28.14,16.07,6,6,0,0,0,6.25-1.53,30.44,30.44,0,0,1,44.32,0,5.93,5.93,0,0,0,4.33,1.86,6.22,6.22,0,0,0,2-.32,86.7,86.7,0,0,0,28.14-16.07,5.84,5.84,0,0,0,1.78-6.11A29.36,29.36,0,0,1,577,501.3a29.94,29.94,0,0,1,19.5-14.21A5.91,5.91,0,0,0,601,482.5a83.19,83.19,0,0,0,0-32.1Zm-41.69,70.93a70.13,70.13,0,0,1-17,9.7c-7.29-6.38-16.26-6.24-26-6.24s-19.39-.14-26.72,6.24a70.11,70.11,0,0,1-17-9.7c2-9.42-2.44-17-7.34-25.4s-9.78-16.7-19.07-19.78a66.51,66.51,0,0,1,0-19.41c9.26-3.06,12-10.15,16.85-18.51s11.5-17.22,9.56-26.67a70.19,70.19,0,0,1,17-9.7c7.31,6.4,17,5.3,26.72,5.3s18.74,1.1,26-5.28a70.18,70.18,0,0,1,17,9.7c-1.95,9.46,3.17,16.1,8,24.44s9.06,17.66,18.35,20.75a67.8,67.8,0,0,1,.71,9.72,63.32,63.32,0,0,1-.7,9.67c-9.29,3.08-11.29,11.45-16.15,19.78s-12.19,15.92-10.26,25.4Zm0,0"/>
    </g>
    <g class="cls-5">
        <path class="cls-2" d="M594.69,451.6a5.42,5.42,0,0,0-4.15-4.25,27.78,27.78,0,0,1-18-13.15,27.28,27.28,0,0,1-2.52-22,5.32,5.32,0,0,0-1.65-5.67,80.12,80.12,0,0,0-26-14.87,5.5,5.5,0,0,0-5.79,1.42,28.17,28.17,0,0,1-41,0,5.6,5.6,0,0,0-5.81-1.42,80.07,80.07,0,0,0-26,14.89,5.37,5.37,0,0,0-1.64,5.64,27.23,27.23,0,0,1-2.5,22,27.73,27.73,0,0,1-18,13.15,5.46,5.46,0,0,0-4.15,4.26,76.87,76.87,0,0,0,0,29.69,5.43,5.43,0,0,0,4.15,4.25,27.78,27.78,0,0,1,18.05,13.15,27.23,27.23,0,0,1,2.5,22,5.41,5.41,0,0,0,1.65,5.65,80.21,80.21,0,0,0,26,14.87,5.51,5.51,0,0,0,5.78-1.41,28.17,28.17,0,0,1,41,0,5.49,5.49,0,0,0,4,1.73,5.76,5.76,0,0,0,1.81-.29,80.24,80.24,0,0,0,26-14.87,5.4,5.4,0,0,0,1.64-5.65,27.17,27.17,0,0,1,2.51-22,27.71,27.71,0,0,1,18.05-13.15,5.47,5.47,0,0,0,4.15-4.25,77,77,0,0,0,0-29.71ZM556.1,517.24a64.9,64.9,0,0,1-15.71,9c-6.74-5.91-15,3-24.06,3s-18-8.91-24.75-3a64.88,64.88,0,0,1-15.72-9c1.82-8.72-8.26-11.34-12.8-19.09s-3-19.87-11.64-22.72a62.44,62.44,0,0,1-.66-9c0-2.95-.31-6.09.66-9,5-14.8,9.34-18.16,13.86-25.9s0-6.66,10.57-15.92c4.55-4,10.06-6.72,15.72-9,6.77,5.92,13.52.48,22.53.48s19.54,5.45,26.28-.46a65,65,0,0,1,15.71,9c-1.8,8.76,6.76,12.62,11.27,20.34s4.56,18.62,13.15,21.47a62.75,62.75,0,0,1,.66,9,58.6,58.6,0,0,1-.64,9c-8.6,2.85-4.24,12.79-8.73,20.5s-17.49,12.55-15.7,21.31Zm0,0"/>
    </g>
</svg>